<mxfile host="app.diagrams.net" modified="2023-02-04T10:42:45.216Z" agent="5.0 (X11; Linux x86_64) AppleWebKit/537.36 (KHTML, like Gecko) Chrome/108.0.0.0 Safari/537.36" etag="d1V-tHfBJuoejttQnXXQ" version="20.8.13" type="github">
  <diagram name="Page-1" id="2EDwI4tOqOdnfyiMSq7x">
    <mxGraphModel dx="880" dy="421" grid="1" gridSize="10" guides="1" tooltips="1" connect="1" arrows="1" fold="1" page="1" pageScale="1" pageWidth="827" pageHeight="1169" math="0" shadow="0">
      <root>
        <mxCell id="0" />
        <mxCell id="1" parent="0" />
        <mxCell id="JD2GnQjCshVZ6uqYcI7P-6" style="edgeStyle=orthogonalEdgeStyle;rounded=0;orthogonalLoop=1;jettySize=auto;html=1;entryX=0;entryY=0.5;entryDx=0;entryDy=0;fontSize=20;" edge="1" parent="1" source="JD2GnQjCshVZ6uqYcI7P-1" target="JD2GnQjCshVZ6uqYcI7P-2">
          <mxGeometry relative="1" as="geometry" />
        </mxCell>
        <mxCell id="JD2GnQjCshVZ6uqYcI7P-7" style="edgeStyle=orthogonalEdgeStyle;rounded=0;orthogonalLoop=1;jettySize=auto;html=1;exitX=1;exitY=0.5;exitDx=0;exitDy=0;entryX=0;entryY=0.5;entryDx=0;entryDy=0;fontSize=20;" edge="1" parent="1" source="JD2GnQjCshVZ6uqYcI7P-1" target="JD2GnQjCshVZ6uqYcI7P-5">
          <mxGeometry relative="1" as="geometry" />
        </mxCell>
        <mxCell id="JD2GnQjCshVZ6uqYcI7P-1" value="&lt;b&gt;&lt;font style=&quot;font-size: 20px;&quot;&gt;Collect object info&lt;/font&gt;&lt;/b&gt;" style="rounded=1;whiteSpace=wrap;html=1;horizontal=1;verticalAlign=top;" vertex="1" parent="1">
          <mxGeometry x="200" y="120" width="140" height="70" as="geometry" />
        </mxCell>
        <mxCell id="JD2GnQjCshVZ6uqYcI7P-2" value="Behaviour" style="rounded=1;whiteSpace=wrap;html=1;fontSize=20;" vertex="1" parent="1">
          <mxGeometry x="584" y="50" width="146" height="70" as="geometry" />
        </mxCell>
        <mxCell id="JD2GnQjCshVZ6uqYcI7P-5" value="Dependencies" style="rounded=1;whiteSpace=wrap;html=1;fontSize=20;" vertex="1" parent="1">
          <mxGeometry x="584" y="240" width="146" height="60" as="geometry" />
        </mxCell>
      </root>
    </mxGraphModel>
  </diagram>
</mxfile>
